<svg width="24" height="24" fill="none" xmlns="http://www.w3.org/2000/svg"><g clip-path="url(#clip0_303_4067)"><path d="M6.857 2.444c1.263.92 2.219 2.215 3.033 3.404l.638.938a1.504 1.504 0 01-.178 1.913l-1.356 1.356.143.303c.35.71.954 1.73 1.863 2.64a9.87 9.87 0 002.104 1.58l.367.197.327.162.146.068 1.355-1.357a1.502 1.502 0 011.918-.17l1.014.703c1.152.81 2.355 1.733 3.29 2.93a1.47 1.47 0 01.189 1.485c-.837 1.953-2.955 3.616-5.158 3.535l-.3-.017-.233-.02-.258-.03-.281-.038-.305-.05-.326-.064-.346-.078-.366-.093-.385-.11-.402-.13c-1.846-.627-4.189-1.857-6.593-4.26-2.403-2.403-3.633-4.746-4.259-6.592l-.13-.402-.11-.385-.094-.366-.078-.346a11.837 11.837 0 01-.063-.326l-.05-.305-.04-.281-.029-.258-.02-.233-.016-.3c-.081-2.196 1.6-4.33 3.544-5.162a1.47 1.47 0 011.445.159zM5.93 4.252c-1.072.56-2.11 1.84-2.063 3.12l.02.329.022.205.029.23.04.253.051.277.065.298.08.32.096.339.114.358a16 16 0 00.134.374l.154.393.176.407c.628 1.382 1.652 3 3.325 4.671 1.672 1.672 3.29 2.697 4.672 3.325l.407.177.392.154c.128.047.253.091.375.134l.358.114.34.096.319.08.298.065.277.05.254.04.23.03.204.02.328.02c1.264.047 2.554-.985 3.112-2.043-.712-.835-1.596-1.52-2.571-2.21l-.748-.52-.19.198-.406.444-.215.226c-.586.597-1.27 1.104-2.09.773l-.226-.095-.276-.125-.154-.073-.338-.168-.371-.2a11.868 11.868 0 01-2.567-1.926 11.867 11.867 0 01-1.925-2.567l-.2-.37-.17-.338-.196-.43L7 10.478c-.311-.768.117-1.417.664-1.98l.224-.22.557-.512.2-.19-.473-.693c-.703-1.02-1.39-1.94-2.243-2.632h.001zm9.063 1.787l.116.013a3.5 3.5 0 012.858 2.96 1 1 0 01-1.958.393l-.023-.115a1.5 1.5 0 00-1.07-1.233l-.155-.035a1 1 0 01.232-1.983zM15 2.999a6 6 0 016 6 1 1 0 01-1.993.117L19 8.999a3.998 3.998 0 00-3.738-3.991L15 4.998a1 1 0 110-2z" fill="#252525"/></g><defs><clipPath id="clip0_303_4067"><path fill="#fff" d="M0 0h24v24H0z"/></clipPath></defs></svg>